<svg id="Layer_1" data-name="Layer 1" xmlns="http://www.w3.org/2000/svg" viewBox="0 0 309.8 119.48"><defs><style>.cls-1,.cls-2{fill:#212a55;}.cls-1,.cls-3{fill-rule:evenodd;}.cls-3,.cls-4{fill:#1ab03c;}</style></defs><path class="cls-1" d="M484.3,366.43a59.73,59.73,0,0,1,52.93,32h0a23.07,23.07,0,0,1-31.08,1.47,34.15,34.15,0,1,0-29.83,59.44L456.59,479.1A59.74,59.74,0,0,1,484.3,366.43Z" transform="translate(-348.3 -366.43)"/><path class="cls-2" d="M396.71,485.9a106,106,0,0,1-27.07-3.44Q356.5,479,348.3,473.27L359,449.32a69.14,69.14,0,0,0,17.89,8.2,68,68,0,0,0,20,3.11q18.69,0,18.69-9.34c0-3.29-1.76-5.73-5.33-7.31s-9.26-3.25-17.13-5a163.56,163.56,0,0,1-21.67-6,36.32,36.32,0,0,1-14.94-10.25q-6.22-7.07-6.23-19A32.87,32.87,0,0,1,356,384.74q5.76-8.46,17.15-13.38t28-4.93A98.68,98.68,0,0,1,423.47,369a72.27,72.27,0,0,1,16,5.68A68.65,68.65,0,0,0,423,396a61.18,61.18,0,0,0-22-4.33q-9.68,0-14.12,2.88c-2.94,1.9-4.43,4.39-4.43,7.46s1.75,5.36,5.26,6.89,9.12,3.11,16.89,4.76a159.23,159.23,0,0,1,21.76,6,37.87,37.87,0,0,1,14.92,10.18q6.33,7,6.32,18.95a32.31,32.31,0,0,1-5.73,18.71q-5.78,8.39-17.24,13.38t-27.9,5Z" transform="translate(-348.3 -366.43)"/><polyline class="cls-3" points="144.92 88.13 113.56 119.48 149.77 119.48 181.73 87.51 211.68 57.57 273.59 119.48 293.6 119.48 309.8 119.48 275.72 85.4 229.78 39.46 211.68 21.36 161.31 71.72"/><path class="cls-1" d="M543.67,453.28h12.05v12H543.67Zm20.58,0h12v12h-12Zm12,20.58v12h-12v-12Zm-20.58,12H543.67v-12h12.05Z" transform="translate(-348.3 -366.43)"/><ellipse class="cls-4" cx="137.05" cy="57.99" rx="12.14" ry="11.15"/></svg>